<svg width="20" height="20" viewBox="0 0 20 20" fill="none" xmlns="http://www.w3.org/2000/svg">
<g clip-path="url(#clip0_337_45)">
<path fill-rule="evenodd" clip-rule="evenodd" d="M10 0C4.47917 0 0 4.47917 0 10C0 15.5208 4.47917 20 10 20C15.51 20 20 15.5208 20 10C20 4.47917 15.51 0 10 0ZM16.605 4.60917C17.7983 6.0625 18.5142 7.9175 18.5358 9.92417C18.2542 9.87 15.4342 9.295 12.5917 9.6525C12.5267 9.51167 12.4725 9.36 12.4075 9.20833C12.2342 8.79583 12.0383 8.37333 11.8433 7.97167C14.9892 6.69167 16.4208 4.84833 16.605 4.60917ZM11.1817 6.7025C9.7825 4.1325 8.23167 2.0275 7.99333 1.7025C8.63333 1.55083 9.30583 1.475 10 1.475C12.1692 1.475 14.1542 2.28833 15.6617 3.6225C15.51 3.83917 14.2192 5.56417 11.1817 6.7025ZM6.36667 2.2775C6.59417 2.58083 8.1125 4.69583 9.53333 7.2125C5.54167 8.275 2.01667 8.25417 1.6375 8.25417C2.19083 5.6075 3.98083 3.40583 6.36667 2.2775ZM1.45333 9.75C1.82167 9.76083 5.965 9.815 10.2275 8.53583C10.4775 9.0125 10.705 9.50083 10.9217 9.98917C10.8133 10.0217 10.6942 10.0542 10.585 10.0867C6.18167 11.5075 3.83917 15.3908 3.64333 15.7158C2.2875 14.2083 1.4525 12.2017 1.4525 10.0108L1.45333 9.75ZM11.4642 11.41C11.4858 11.3992 11.4967 11.3992 11.5183 11.3883C12.7225 14.5008 13.2108 17.115 13.3408 17.8633C12.31 18.3083 11.1825 18.5467 10 18.5467C8.02583 18.5467 6.20417 17.8742 4.76167 16.7467C4.91333 16.4317 6.64833 13.0908 11.4642 11.41ZM14.7617 17.0825C14.675 16.5617 14.2192 14.0675 13.1025 10.9975C15.7817 10.575 18.1242 11.2692 18.4167 11.3667C18.0475 13.7417 16.6817 15.7917 14.7617 17.0825Z" fill="#fff"/>
</g>
<defs>
<clipPath id="clip0_337_45">
<rect width="20" height="20" fill="white"/>
</clipPath>
</defs>
</svg>
