<svg width="20" height="18" viewBox="0 0 20 18" fill="none" xmlns="http://www.w3.org/2000/svg">
<path d="M15.8333 0H4.16667C3.062 0.00129916 2.00296 0.432722 1.22185 1.19963C0.440735 1.96655 0.00132321 3.00633 0 4.09091L0 13.9091C0.00132321 14.9937 0.440735 16.0335 1.22185 16.8004C2.00296 17.5673 3.062 17.9987 4.16667 18H15.8333C16.938 17.9987 17.997 17.5673 18.7782 16.8004C19.5593 16.0335 19.9987 14.9937 20 13.9091V4.09091C19.9987 3.00633 19.5593 1.96655 18.7782 1.19963C17.997 0.432722 16.938 0.00129916 15.8333 0ZM4.16667 1.63636H15.8333C16.3323 1.63733 16.8196 1.78488 17.2325 2.06002C17.6453 2.33517 17.9649 2.72532 18.15 3.18027L11.7683 9.44673C11.2987 9.90598 10.6628 10.1638 10 10.1638C9.33715 10.1638 8.70131 9.90598 8.23167 9.44673L1.85 3.18027C2.03512 2.72532 2.35468 2.33517 2.76754 2.06002C3.1804 1.78488 3.66768 1.63733 4.16667 1.63636ZM15.8333 16.3636H4.16667C3.50363 16.3636 2.86774 16.105 2.3989 15.6447C1.93006 15.1844 1.66667 14.5601 1.66667 13.9091V5.31818L7.05333 10.6036C7.83552 11.3697 8.89521 11.7998 10 11.7998C11.1048 11.7998 12.1645 11.3697 12.9467 10.6036L18.3333 5.31818V13.9091C18.3333 14.5601 18.0699 15.1844 17.6011 15.6447C17.1323 16.105 16.4964 16.3636 15.8333 16.3636Z" fill="#fff"/>
</svg>
